<mxfile host="app.diagrams.net" agent="Mozilla/5.0 (Windows NT 10.0; Win64; x64) AppleWebKit/537.36 (KHTML, like Gecko) Chrome/127.0.0.0 Safari/537.36 Edg/127.0.0.0" version="24.7.6">
  <diagram id="C5RBs43oDa-KdzZeNtuy" name="Page-1">
    <mxGraphModel dx="1431" dy="810" grid="1" gridSize="10" guides="0" tooltips="1" connect="0" arrows="1" fold="1" page="1" pageScale="1" pageWidth="827" pageHeight="1169" math="0" shadow="0">
      <root>
        <mxCell id="WIyWlLk6GJQsqaUBKTNV-0" />
        <mxCell id="WIyWlLk6GJQsqaUBKTNV-1" parent="WIyWlLk6GJQsqaUBKTNV-0" />
        <mxCell id="WIyWlLk6GJQsqaUBKTNV-3" value="&lt;font style=&quot;font-size: 14px;&quot;&gt;开始运行&lt;/font&gt;" style="rounded=1;whiteSpace=wrap;html=1;fontSize=12;glass=0;strokeWidth=1;shadow=0;" parent="WIyWlLk6GJQsqaUBKTNV-1" vertex="1">
          <mxGeometry x="130" y="30" width="210" height="40" as="geometry" />
        </mxCell>
        <mxCell id="Q7k4ZVWRt7DVr08eASTn-21" value="" style="edgeStyle=orthogonalEdgeStyle;rounded=0;orthogonalLoop=1;jettySize=auto;html=1;" edge="1" parent="WIyWlLk6GJQsqaUBKTNV-1" target="Q7k4ZVWRt7DVr08eASTn-5">
          <mxGeometry relative="1" as="geometry">
            <mxPoint x="234.99999999999977" y="590" as="sourcePoint" />
          </mxGeometry>
        </mxCell>
        <mxCell id="Q7k4ZVWRt7DVr08eASTn-36" value="" style="edgeStyle=orthogonalEdgeStyle;rounded=0;orthogonalLoop=1;jettySize=auto;html=1;" edge="1" parent="WIyWlLk6GJQsqaUBKTNV-1" source="WIyWlLk6GJQsqaUBKTNV-6" target="Q7k4ZVWRt7DVr08eASTn-4">
          <mxGeometry relative="1" as="geometry" />
        </mxCell>
        <mxCell id="Q7k4ZVWRt7DVr08eASTn-43" style="edgeStyle=orthogonalEdgeStyle;rounded=0;orthogonalLoop=1;jettySize=auto;html=1;" edge="1" parent="WIyWlLk6GJQsqaUBKTNV-1" source="WIyWlLk6GJQsqaUBKTNV-6">
          <mxGeometry relative="1" as="geometry">
            <mxPoint x="235" y="260" as="targetPoint" />
            <Array as="points">
              <mxPoint x="80" y="510" />
              <mxPoint x="80" y="260" />
            </Array>
          </mxGeometry>
        </mxCell>
        <mxCell id="WIyWlLk6GJQsqaUBKTNV-6" value="&lt;span style=&quot;font-size: 14px;&quot;&gt;达到目标？&lt;/span&gt;" style="rhombus;whiteSpace=wrap;html=1;shadow=0;fontFamily=Helvetica;fontSize=12;align=center;strokeWidth=1;spacing=6;spacingTop=-4;" parent="WIyWlLk6GJQsqaUBKTNV-1" vertex="1">
          <mxGeometry x="177.5" y="460" width="115" height="100" as="geometry" />
        </mxCell>
        <mxCell id="Q7k4ZVWRt7DVr08eASTn-16" value="" style="edgeStyle=orthogonalEdgeStyle;rounded=0;orthogonalLoop=1;jettySize=auto;html=1;" edge="1" parent="WIyWlLk6GJQsqaUBKTNV-1" source="Q7k4ZVWRt7DVr08eASTn-0" target="Q7k4ZVWRt7DVr08eASTn-1">
          <mxGeometry relative="1" as="geometry" />
        </mxCell>
        <mxCell id="Q7k4ZVWRt7DVr08eASTn-0" value="&lt;span style=&quot;font-size: 14px;&quot;&gt;初始化参数&lt;/span&gt;&lt;div&gt;&lt;span style=&quot;font-size: 14px; background-color: initial;&quot;&gt;创建map图&lt;/span&gt;&lt;/div&gt;" style="rounded=0;whiteSpace=wrap;html=1;" vertex="1" parent="WIyWlLk6GJQsqaUBKTNV-1">
          <mxGeometry x="130" y="100" width="210" height="60" as="geometry" />
        </mxCell>
        <mxCell id="Q7k4ZVWRt7DVr08eASTn-18" value="" style="edgeStyle=orthogonalEdgeStyle;rounded=0;orthogonalLoop=1;jettySize=auto;html=1;" edge="1" parent="WIyWlLk6GJQsqaUBKTNV-1" source="Q7k4ZVWRt7DVr08eASTn-1" target="Q7k4ZVWRt7DVr08eASTn-2">
          <mxGeometry relative="1" as="geometry" />
        </mxCell>
        <mxCell id="Q7k4ZVWRt7DVr08eASTn-1" value="&lt;span style=&quot;font-size: 14px;&quot;&gt;创建障碍环境&lt;/span&gt;&lt;br&gt;&lt;div&gt;&lt;span style=&quot;font-size: 14px;&quot;&gt;创建开放与封闭列表&lt;/span&gt;&lt;/div&gt;" style="rounded=0;whiteSpace=wrap;html=1;" vertex="1" parent="WIyWlLk6GJQsqaUBKTNV-1">
          <mxGeometry x="130" y="190" width="210" height="60" as="geometry" />
        </mxCell>
        <mxCell id="Q7k4ZVWRt7DVr08eASTn-19" value="" style="edgeStyle=orthogonalEdgeStyle;rounded=0;orthogonalLoop=1;jettySize=auto;html=1;" edge="1" parent="WIyWlLk6GJQsqaUBKTNV-1" source="Q7k4ZVWRt7DVr08eASTn-2" target="Q7k4ZVWRt7DVr08eASTn-3">
          <mxGeometry relative="1" as="geometry" />
        </mxCell>
        <mxCell id="Q7k4ZVWRt7DVr08eASTn-2" value="&lt;span style=&quot;font-size: 14px;&quot;&gt;计算次节点&lt;/span&gt;&lt;br&gt;&lt;div&gt;&lt;font style=&quot;font-size: 14px;&quot;&gt;(f(n),g(n),h(n))&lt;/font&gt;&lt;/div&gt;" style="rounded=0;whiteSpace=wrap;html=1;" vertex="1" parent="WIyWlLk6GJQsqaUBKTNV-1">
          <mxGeometry x="130" y="280" width="210" height="60" as="geometry" />
        </mxCell>
        <mxCell id="Q7k4ZVWRt7DVr08eASTn-20" value="" style="edgeStyle=orthogonalEdgeStyle;rounded=0;orthogonalLoop=1;jettySize=auto;html=1;" edge="1" parent="WIyWlLk6GJQsqaUBKTNV-1" source="Q7k4ZVWRt7DVr08eASTn-3" target="WIyWlLk6GJQsqaUBKTNV-6">
          <mxGeometry relative="1" as="geometry" />
        </mxCell>
        <mxCell id="Q7k4ZVWRt7DVr08eASTn-3" value="&lt;font style=&quot;font-size: 14px;&quot;&gt;最小化f(n)&lt;/font&gt;" style="rounded=0;whiteSpace=wrap;html=1;" vertex="1" parent="WIyWlLk6GJQsqaUBKTNV-1">
          <mxGeometry x="130" y="370" width="210" height="60" as="geometry" />
        </mxCell>
        <mxCell id="Q7k4ZVWRt7DVr08eASTn-22" value="" style="edgeStyle=orthogonalEdgeStyle;rounded=0;orthogonalLoop=1;jettySize=auto;html=1;" edge="1" parent="WIyWlLk6GJQsqaUBKTNV-1" source="Q7k4ZVWRt7DVr08eASTn-4" target="Q7k4ZVWRt7DVr08eASTn-5">
          <mxGeometry relative="1" as="geometry" />
        </mxCell>
        <mxCell id="Q7k4ZVWRt7DVr08eASTn-4" value="&lt;font style=&quot;font-size: 14px;&quot;&gt;找寻关键节点&lt;/font&gt;" style="rounded=0;whiteSpace=wrap;html=1;" vertex="1" parent="WIyWlLk6GJQsqaUBKTNV-1">
          <mxGeometry x="130" y="590" width="210" height="60" as="geometry" />
        </mxCell>
        <mxCell id="Q7k4ZVWRt7DVr08eASTn-23" value="" style="edgeStyle=orthogonalEdgeStyle;rounded=0;orthogonalLoop=1;jettySize=auto;html=1;" edge="1" parent="WIyWlLk6GJQsqaUBKTNV-1" source="Q7k4ZVWRt7DVr08eASTn-5" target="Q7k4ZVWRt7DVr08eASTn-6">
          <mxGeometry relative="1" as="geometry" />
        </mxCell>
        <mxCell id="Q7k4ZVWRt7DVr08eASTn-5" value="&lt;font style=&quot;font-size: 14px;&quot;&gt;策略优化&lt;/font&gt;" style="rounded=0;whiteSpace=wrap;html=1;" vertex="1" parent="WIyWlLk6GJQsqaUBKTNV-1">
          <mxGeometry x="130" y="680" width="210" height="60" as="geometry" />
        </mxCell>
        <mxCell id="Q7k4ZVWRt7DVr08eASTn-44" style="edgeStyle=orthogonalEdgeStyle;rounded=0;orthogonalLoop=1;jettySize=auto;html=1;" edge="1" parent="WIyWlLk6GJQsqaUBKTNV-1" source="Q7k4ZVWRt7DVr08eASTn-6">
          <mxGeometry relative="1" as="geometry">
            <mxPoint x="570" y="270" as="targetPoint" />
            <Array as="points">
              <mxPoint x="421" y="800" />
              <mxPoint x="421" y="270" />
            </Array>
          </mxGeometry>
        </mxCell>
        <mxCell id="Q7k4ZVWRt7DVr08eASTn-6" value="&lt;font style=&quot;font-size: 14px;&quot;&gt;更新列表&lt;/font&gt;" style="rounded=0;whiteSpace=wrap;html=1;" vertex="1" parent="WIyWlLk6GJQsqaUBKTNV-1">
          <mxGeometry x="130" y="770" width="210" height="60" as="geometry" />
        </mxCell>
        <mxCell id="Q7k4ZVWRt7DVr08eASTn-24" value="" style="edgeStyle=orthogonalEdgeStyle;rounded=0;orthogonalLoop=1;jettySize=auto;html=1;" edge="1" parent="WIyWlLk6GJQsqaUBKTNV-1">
          <mxGeometry relative="1" as="geometry">
            <mxPoint x="579.9411764705881" y="159.9999999999999" as="sourcePoint" />
            <mxPoint x="579.9411764705881" y="189.9999999999999" as="targetPoint" />
          </mxGeometry>
        </mxCell>
        <mxCell id="Q7k4ZVWRt7DVr08eASTn-26" value="" style="edgeStyle=orthogonalEdgeStyle;rounded=0;orthogonalLoop=1;jettySize=auto;html=1;" edge="1" parent="WIyWlLk6GJQsqaUBKTNV-1">
          <mxGeometry relative="1" as="geometry">
            <mxPoint x="579.9411764705881" y="340" as="sourcePoint" />
            <mxPoint x="579.9411764705881" y="370.04812834224595" as="targetPoint" />
          </mxGeometry>
        </mxCell>
        <mxCell id="Q7k4ZVWRt7DVr08eASTn-41" value="" style="edgeStyle=orthogonalEdgeStyle;rounded=0;orthogonalLoop=1;jettySize=auto;html=1;" edge="1" parent="WIyWlLk6GJQsqaUBKTNV-1" target="Q7k4ZVWRt7DVr08eASTn-40">
          <mxGeometry relative="1" as="geometry">
            <mxPoint x="579.9411764705881" y="459.95187165775405" as="sourcePoint" />
          </mxGeometry>
        </mxCell>
        <mxCell id="Q7k4ZVWRt7DVr08eASTn-13" value="&lt;font style=&quot;font-size: 14px;&quot;&gt;程序结束&lt;/font&gt;" style="rounded=1;whiteSpace=wrap;html=1;fontSize=12;glass=0;strokeWidth=1;shadow=0;" vertex="1" parent="WIyWlLk6GJQsqaUBKTNV-1">
          <mxGeometry x="470" y="590" width="220" height="50" as="geometry" />
        </mxCell>
        <mxCell id="Q7k4ZVWRt7DVr08eASTn-14" value="" style="endArrow=classic;html=1;rounded=0;exitX=0.5;exitY=1;exitDx=0;exitDy=0;entryX=0.503;entryY=-0.011;entryDx=0;entryDy=0;entryPerimeter=0;" edge="1" parent="WIyWlLk6GJQsqaUBKTNV-1" source="WIyWlLk6GJQsqaUBKTNV-3" target="Q7k4ZVWRt7DVr08eASTn-0">
          <mxGeometry width="50" height="50" relative="1" as="geometry">
            <mxPoint x="220" y="90" as="sourcePoint" />
            <mxPoint x="219.5" y="100" as="targetPoint" />
          </mxGeometry>
        </mxCell>
        <mxCell id="Q7k4ZVWRt7DVr08eASTn-37" value="&lt;font style=&quot;font-size: 14px;&quot;&gt;运动学模型&lt;/font&gt;" style="rounded=0;whiteSpace=wrap;html=1;" vertex="1" parent="WIyWlLk6GJQsqaUBKTNV-1">
          <mxGeometry x="470" y="100" width="210" height="60" as="geometry" />
        </mxCell>
        <mxCell id="Q7k4ZVWRt7DVr08eASTn-47" value="" style="edgeStyle=orthogonalEdgeStyle;rounded=0;orthogonalLoop=1;jettySize=auto;html=1;" edge="1" parent="WIyWlLk6GJQsqaUBKTNV-1" source="Q7k4ZVWRt7DVr08eASTn-38" target="Q7k4ZVWRt7DVr08eASTn-39">
          <mxGeometry relative="1" as="geometry" />
        </mxCell>
        <mxCell id="Q7k4ZVWRt7DVr08eASTn-38" value="&lt;font style=&quot;font-size: 14px;&quot;&gt;速度采样&lt;/font&gt;" style="rounded=0;whiteSpace=wrap;html=1;" vertex="1" parent="WIyWlLk6GJQsqaUBKTNV-1">
          <mxGeometry x="470" y="190" width="210" height="60" as="geometry" />
        </mxCell>
        <mxCell id="Q7k4ZVWRt7DVr08eASTn-39" value="&lt;span style=&quot;font-size: 14px;&quot;&gt;生成并选择最佳规划&lt;/span&gt;" style="rounded=0;whiteSpace=wrap;html=1;" vertex="1" parent="WIyWlLk6GJQsqaUBKTNV-1">
          <mxGeometry x="470" y="290" width="210" height="60" as="geometry" />
        </mxCell>
        <mxCell id="Q7k4ZVWRt7DVr08eASTn-42" value="" style="edgeStyle=orthogonalEdgeStyle;rounded=0;orthogonalLoop=1;jettySize=auto;html=1;" edge="1" parent="WIyWlLk6GJQsqaUBKTNV-1" source="Q7k4ZVWRt7DVr08eASTn-40" target="Q7k4ZVWRt7DVr08eASTn-13">
          <mxGeometry relative="1" as="geometry" />
        </mxCell>
        <mxCell id="Q7k4ZVWRt7DVr08eASTn-40" value="&lt;span style=&quot;font-size: 14px;&quot;&gt;最佳规划&lt;/span&gt;" style="rounded=0;whiteSpace=wrap;html=1;" vertex="1" parent="WIyWlLk6GJQsqaUBKTNV-1">
          <mxGeometry x="475" y="500" width="210" height="60" as="geometry" />
        </mxCell>
        <mxCell id="Q7k4ZVWRt7DVr08eASTn-52" value="否" style="text;html=1;align=center;verticalAlign=middle;whiteSpace=wrap;rounded=0;" vertex="1" parent="WIyWlLk6GJQsqaUBKTNV-1">
          <mxGeometry x="100" y="480" width="60" height="30" as="geometry" />
        </mxCell>
        <mxCell id="Q7k4ZVWRt7DVr08eASTn-53" value="否" style="text;html=1;align=center;verticalAlign=middle;whiteSpace=wrap;rounded=0;" vertex="1" parent="WIyWlLk6GJQsqaUBKTNV-1">
          <mxGeometry x="640" y="385" width="60" height="30" as="geometry" />
        </mxCell>
        <mxCell id="Q7k4ZVWRt7DVr08eASTn-54" value="是" style="text;html=1;align=center;verticalAlign=middle;whiteSpace=wrap;rounded=0;" vertex="1" parent="WIyWlLk6GJQsqaUBKTNV-1">
          <mxGeometry x="230" y="560" width="60" height="30" as="geometry" />
        </mxCell>
        <mxCell id="Q7k4ZVWRt7DVr08eASTn-55" value="是" style="text;html=1;align=center;verticalAlign=middle;whiteSpace=wrap;rounded=0;" vertex="1" parent="WIyWlLk6GJQsqaUBKTNV-1">
          <mxGeometry x="575" y="460" width="60" height="30" as="geometry" />
        </mxCell>
        <mxCell id="Q7k4ZVWRt7DVr08eASTn-57" style="edgeStyle=orthogonalEdgeStyle;rounded=0;orthogonalLoop=1;jettySize=auto;html=1;" edge="1" parent="WIyWlLk6GJQsqaUBKTNV-1" source="Q7k4ZVWRt7DVr08eASTn-56">
          <mxGeometry relative="1" as="geometry">
            <mxPoint x="580" y="270" as="targetPoint" />
            <Array as="points">
              <mxPoint x="720" y="420" />
              <mxPoint x="720" y="270" />
            </Array>
          </mxGeometry>
        </mxCell>
        <mxCell id="Q7k4ZVWRt7DVr08eASTn-56" value="&lt;span style=&quot;font-size: 14px;&quot;&gt;达到目标？&lt;/span&gt;" style="rhombus;whiteSpace=wrap;html=1;shadow=0;fontFamily=Helvetica;fontSize=12;align=center;strokeWidth=1;spacing=6;spacingTop=-4;" vertex="1" parent="WIyWlLk6GJQsqaUBKTNV-1">
          <mxGeometry x="522.5" y="370" width="115" height="100" as="geometry" />
        </mxCell>
      </root>
    </mxGraphModel>
  </diagram>
</mxfile>
